<svg id="Layer_1" data-name="Layer 1" xmlns="http://www.w3.org/2000/svg" viewBox="0 0 680.02 251.18"><defs><style>.cls-1{fill:#360097;}</style></defs><path class="cls-1" d="M561.72,47.58C542.3,65.59,520.23,81,496.6,80.4a58.6,58.6,0,0,1-31.08-10.19c-10.36-6.87-19.13-16-29.27-23.5C425.19,38.53,420.64,34.64,407,33.65c-24.86-1.81-32.55,44.53-66.82,46.5-42-.86-72.88-74.15-118.47-32.57-19.42,18-41.48,33.46-65.12,32.82a58.6,58.6,0,0,1-31.08-10.19c-10.35-6.87-19.13-16-29.27-23.5C85.16,38.53,80.61,34.64,67,33.65,42.09,31.84,34.4,78.18.13,80.15l0,163.26h0v8.24h680.1v-8.24h0V80.15C638.15,79.29,607.3,6,561.72,47.58Z"/></svg>